<svg width="40" height="41" viewBox="0 0 40 41" fill="none" xmlns="http://www.w3.org/2000/svg">
<path d="M33.6667 20.5714C33.6667 28.189 27.544 34.3571 20 34.3571C12.4561 34.3571 6.33334 28.189 6.33334 20.5714C6.33334 12.9538 12.4561 6.78571 20 6.78571C27.544 6.78571 33.6667 12.9538 33.6667 20.5714Z" stroke="white"/>
<path d="M16 22.0714C15.6667 22.2381 14.8 22.2714 14 21.0714C13.2 19.8714 13.6667 18.5714 14 18.0714C14 18.0714 15.5 16.5714 16.5 19.0714C17.3 21.0714 16.5 21.9048 16 22.0714Z" fill="white"/>
<path d="M14 21.0714L14.416 20.7941L14 21.0714ZM16 22.0714L15.8419 21.5971L15.8082 21.6083L15.7764 21.6242L16 22.0714ZM16.5 19.0714L16.0358 19.2571L16.5 19.0714ZM14 18.0714L13.6465 17.7179C13.6232 17.7412 13.6022 17.7667 13.584 17.7941L14 18.0714ZM13.584 21.3488C14.4903 22.7082 15.6145 22.8232 16.2236 22.5186L15.7764 21.6242C15.7189 21.653 15.1097 21.8346 14.416 20.7941L13.584 21.3488ZM16.1581 22.5458C16.5584 22.4124 16.9989 22.045 17.211 21.4195C17.4234 20.7932 17.3929 19.9574 16.9643 18.8857L16.0358 19.2571C16.4071 20.1855 16.3766 20.7663 16.264 21.0984C16.1511 21.4312 15.9416 21.5638 15.8419 21.5971L16.1581 22.5458ZM13.584 17.7941C13.1905 18.3843 12.628 19.9147 13.584 21.3488L14.416 20.7941C13.7721 19.8281 14.1428 18.7586 14.416 18.3488L13.584 17.7941ZM16.9643 18.8857C16.6942 18.2107 16.3674 17.7454 15.9875 17.4605C15.5944 17.1656 15.181 17.0918 14.813 17.1378C14.4607 17.1818 14.1693 17.3323 13.9775 17.4569C13.8792 17.5208 13.8002 17.5824 13.7446 17.6292C13.7167 17.6527 13.6942 17.6728 13.6778 17.6879C13.6696 17.6956 13.6628 17.702 13.6576 17.707C13.6549 17.7095 13.6527 17.7117 13.6509 17.7135C13.6499 17.7144 13.6491 17.7153 13.6484 17.716C13.648 17.7163 13.6477 17.7167 13.6473 17.717C13.6472 17.7172 13.647 17.7174 13.6469 17.7175C13.6467 17.7177 13.6465 17.7179 14 18.0714C14.3536 18.425 14.3534 18.4252 14.3532 18.4254C14.3531 18.4254 14.3529 18.4256 14.3528 18.4257C14.3526 18.426 14.3524 18.4262 14.3522 18.4263C14.3518 18.4267 14.3516 18.427 14.3514 18.4272C14.351 18.4276 14.3509 18.4276 14.3511 18.4274C14.3516 18.4269 14.3534 18.4252 14.3564 18.4224C14.3624 18.4169 14.3732 18.4072 14.3882 18.3945C14.4186 18.369 14.4646 18.333 14.5225 18.2953C14.6433 18.2169 14.7893 18.1485 14.937 18.1301C15.0691 18.1136 15.2182 18.1335 15.3875 18.2605C15.5701 18.3974 15.8058 18.6822 16.0358 19.2571L16.9643 18.8857Z" fill="white"/>
<path d="M18.0923 18.7179C17.7235 18.8089 16.8691 18.6308 16.401 17.1911C15.9329 15.7514 16.727 14.5189 17.1825 14.0826C17.1825 14.0826 19.0371 12.8964 19.3617 15.7322C19.6214 18.0008 18.6236 18.6679 18.0923 18.7179Z" fill="white"/>
<path d="M16.401 17.1911L16.8765 17.0365L16.401 17.1911ZM18.0923 18.7179L18.0454 18.2201L18.0085 18.2236L17.9726 18.2325L18.0923 18.7179ZM19.3617 15.7322L19.8585 15.6753L19.8585 15.6753L19.3617 15.7322ZM17.1825 14.0826L16.9131 13.6614C16.8858 13.6789 16.8602 13.699 16.8367 13.7215L17.1825 14.0826ZM15.9255 17.3457C16.4503 18.9598 17.519 19.3743 18.212 19.2034L17.9726 18.2325C17.9281 18.2434 17.2879 18.3017 16.8765 17.0365L15.9255 17.3457ZM18.1391 19.2157C18.571 19.1751 19.0883 18.9009 19.4485 18.3207C19.809 17.7398 19.9967 16.8827 19.8585 15.6753L18.865 15.789C18.9864 16.8502 18.8051 17.461 18.5988 17.7933C18.3921 18.1264 18.1449 18.2108 18.0454 18.2201L18.1391 19.2157ZM16.8367 13.7215C16.305 14.2307 15.3753 15.6535 15.9255 17.3457L16.8765 17.0365C16.4905 15.8493 17.149 14.8071 17.5284 14.4437L16.8367 13.7215ZM19.8585 15.6753C19.7717 14.9168 19.5762 14.3604 19.2817 13.9747C18.9751 13.573 18.5867 13.3908 18.2075 13.3473C17.8471 13.3059 17.521 13.3915 17.3023 13.4732C17.1898 13.5153 17.0969 13.5597 17.0309 13.5943C16.9976 13.6117 16.9707 13.6269 16.9509 13.6385C16.941 13.6443 16.9328 13.6492 16.9265 13.6531C16.9233 13.655 16.9206 13.6567 16.9184 13.6581C16.9173 13.6588 16.9163 13.6594 16.9154 13.66C16.915 13.6602 16.9146 13.6605 16.9142 13.6607C16.914 13.6609 16.9137 13.661 16.9136 13.6611C16.9134 13.6613 16.9131 13.6614 17.1825 14.0826C17.452 14.5038 17.4517 14.504 17.4515 14.5041C17.4514 14.5042 17.4512 14.5043 17.4511 14.5044C17.4508 14.5046 17.4506 14.5047 17.4504 14.5048C17.4499 14.5051 17.4496 14.5053 17.4494 14.5055C17.4489 14.5057 17.4489 14.5058 17.4492 14.5055C17.45 14.5051 17.4522 14.5037 17.456 14.5015C17.4635 14.4971 17.4767 14.4896 17.4949 14.4801C17.5315 14.4609 17.5861 14.4347 17.6525 14.4099C17.7917 14.3579 17.9495 14.3242 18.0934 14.3407C18.2183 14.3551 18.3545 14.4081 18.4868 14.5815C18.6314 14.7709 18.7895 15.1296 18.865 15.789L19.8585 15.6753Z" fill="white"/>
<path d="M21.7905 18.7346C21.4132 18.7488 20.6178 18.4029 20.4542 16.9055C20.2907 15.4082 21.3135 14.3674 21.8453 14.0342C21.8453 14.0342 23.8907 13.2525 23.6315 16.0813C23.4241 18.3443 22.3177 18.7931 21.7905 18.7346Z" fill="white"/>
<path d="M20.4542 16.9055L19.9572 16.9598L19.9572 16.9598L20.4542 16.9055ZM21.7905 18.7346L21.8456 18.2377L21.8087 18.2336L21.7717 18.235L21.7905 18.7346ZM23.6315 16.0813L24.1294 16.1269L23.6315 16.0813ZM21.8453 14.0342L21.6668 13.5671C21.6365 13.5787 21.6073 13.5932 21.5798 13.6105L21.8453 14.0342ZM19.9572 16.9598C20.1406 18.6392 21.0975 19.261 21.8092 19.2343L21.7717 18.235C21.7289 18.2366 21.0949 18.1665 20.9513 16.8512L19.9572 16.9598ZM21.7353 19.2316C22.1651 19.2792 22.725 19.1159 23.1934 18.6229C23.6624 18.1293 24.019 17.3316 24.1294 16.1269L23.1336 16.0356C23.0366 17.094 22.7363 17.6522 22.4684 17.9341C22.2 18.2166 21.943 18.2485 21.8456 18.2377L21.7353 19.2316ZM21.5798 13.6105C20.9587 13.9996 19.7649 15.199 19.9572 16.9598L20.9513 16.8512C20.8165 15.6174 21.6682 14.7352 22.1108 14.4579L21.5798 13.6105ZM24.1294 16.1269C24.1988 15.3702 24.1214 14.7881 23.9128 14.3522C23.6954 13.898 23.3537 13.6415 22.9924 13.5222C22.6493 13.4089 22.314 13.4266 22.0843 13.4621C21.9661 13.4805 21.8666 13.505 21.7952 13.5254C21.7593 13.5357 21.73 13.545 21.7083 13.5524C21.6975 13.556 21.6885 13.5592 21.6815 13.5617C21.6781 13.5629 21.6751 13.564 21.6726 13.5649C21.6714 13.5654 21.6703 13.5658 21.6693 13.5662C21.6688 13.5664 21.6684 13.5665 21.668 13.5667C21.6678 13.5668 21.6675 13.5669 21.6674 13.5669C21.6671 13.567 21.6668 13.5671 21.8453 14.0342C22.0238 14.5012 22.0235 14.5013 22.0233 14.5014C22.0232 14.5015 22.023 14.5016 22.0228 14.5016C22.0225 14.5017 22.0222 14.5018 22.022 14.5019C22.0215 14.5021 22.0212 14.5022 22.0209 14.5023C22.0204 14.5025 22.0204 14.5025 22.0208 14.5024C22.0215 14.5021 22.024 14.5012 22.0281 14.4998C22.0363 14.4971 22.0506 14.4924 22.0701 14.4869C22.1096 14.4756 22.1679 14.4611 22.2374 14.4504C22.3831 14.4278 22.5429 14.4269 22.6788 14.4717C22.7965 14.5106 22.9175 14.589 23.0108 14.7839C23.1128 14.997 23.1938 15.378 23.1336 16.0356L24.1294 16.1269Z" fill="white"/>
<path d="M24.03 21.9509C23.6794 21.7994 23.0356 21.1551 23.2651 19.7906C23.4946 18.4261 24.6994 17.9711 25.2731 17.9143C25.2731 17.9143 27.3528 18.1273 26.3966 20.4584C25.6316 22.3232 24.5001 22.2305 24.03 21.9509Z" fill="white"/>
<path d="M23.2651 19.7906L23.7581 19.8735L23.7581 19.8735L23.2651 19.7906ZM24.03 21.9509L24.2855 21.5212L24.2579 21.5048L24.2284 21.492L24.03 21.9509ZM26.3966 20.4584L25.934 20.2686L26.3966 20.4584ZM25.2731 17.9143L25.3241 17.4169C25.2907 17.4134 25.2571 17.4134 25.2238 17.4167L25.2731 17.9143ZM22.772 19.7076C22.509 21.2713 23.245 22.1563 23.8316 22.4099L24.2284 21.492C24.1138 21.4425 23.5621 21.0388 23.7581 19.8735L22.772 19.7076ZM23.7745 22.3807C24.1274 22.5906 24.6905 22.7123 25.2885 22.473C25.8912 22.2318 26.4443 21.6595 26.8592 20.6482L25.934 20.2686C25.5839 21.1221 25.1888 21.4358 24.917 21.5446C24.6404 21.6552 24.4027 21.5908 24.2855 21.5212L23.7745 22.3807ZM25.2238 17.4167C24.537 17.4848 23.0547 18.0267 22.772 19.7076L23.7581 19.8735C23.9344 18.8254 24.8618 18.4575 25.3224 18.4118L25.2238 17.4167ZM26.8592 20.6482C27.1222 20.0069 27.1983 19.4588 27.117 18.9918C27.0343 18.5159 26.7962 18.1713 26.5196 17.9332C26.2507 17.7017 25.9519 17.5755 25.7326 17.5068C25.6209 17.4718 25.5241 17.45 25.4533 17.4366C25.4178 17.4299 25.3884 17.4253 25.3665 17.4222C25.3555 17.4206 25.3464 17.4195 25.3393 17.4186C25.3357 17.4182 25.3327 17.4178 25.3301 17.4175C25.3289 17.4174 25.3277 17.4172 25.3267 17.4171C25.3262 17.4171 25.3257 17.417 25.3253 17.417C25.3251 17.417 25.3248 17.4169 25.3246 17.4169C25.3243 17.4169 25.3241 17.4169 25.2731 17.9143C25.2221 18.4117 25.2219 18.4116 25.2216 18.4116C25.2215 18.4116 25.2213 18.4116 25.2211 18.4115C25.2208 18.4115 25.2205 18.4115 25.2202 18.4115C25.2197 18.4114 25.2193 18.4114 25.2191 18.4113C25.2185 18.4113 25.2184 18.4113 25.2188 18.4113C25.2194 18.4114 25.2219 18.4117 25.2259 18.4123C25.234 18.4134 25.2484 18.4156 25.2679 18.4193C25.3071 18.4267 25.3653 18.4397 25.4336 18.4611C25.5744 18.5052 25.7358 18.578 25.8672 18.6911C25.9911 18.7977 26.0936 18.9434 26.1318 19.1632C26.1716 19.3917 26.1491 19.7443 25.934 20.2686L26.8592 20.6482Z" fill="white"/>
<path d="M20 19.0714C18.4 19.0714 17.3333 21.0714 17 22.0714C17.5 22.5714 14.5 22.5714 15 25.5714C15.4 27.9714 18.5 27.2381 20 26.5714C21.5 27.0714 24.6 27.6714 25 26.0714C25.4 24.4714 23.5 22.4048 22.5 21.5714C22.5 20.5714 22 19.0714 20 19.0714Z" fill="white" stroke="white"/>
</svg>
