<svg width="40" height="40" viewBox="0 0 40 40" fill="none" xmlns="http://www.w3.org/2000/svg">
<path d="M33.6667 20C33.6667 27.6176 27.544 33.7857 20 33.7857C12.4561 33.7857 6.33334 27.6176 6.33334 20C6.33334 12.3824 12.4561 6.21429 20 6.21429C27.544 6.21429 33.6667 12.3824 33.6667 20Z" stroke="black"/>
<path d="M16 21.5C15.6667 21.6667 14.8 21.7 14 20.5C13.2 19.3 13.6667 18 14 17.5C14 17.5 15.5 16 16.5 18.5C17.3 20.5 16.5 21.3334 16 21.5Z" fill="black"/>
<path d="M14 20.5L14.416 20.2227L14 20.5ZM16 21.5L15.8419 21.0257L15.8082 21.0369L15.7764 21.0528L16 21.5ZM16.5 18.5L16.0358 18.6857L16.5 18.5ZM14 17.5L13.6465 17.1465C13.6232 17.1698 13.6022 17.1953 13.584 17.2227L14 17.5ZM13.584 20.7774C14.4903 22.1368 15.6145 22.2518 16.2236 21.9472L15.7764 21.0528C15.7189 21.0816 15.1097 21.2632 14.416 20.2227L13.584 20.7774ZM16.1581 21.9744C16.5584 21.8409 16.9989 21.4736 17.211 20.8481C17.4234 20.2218 17.3929 19.3859 16.9643 18.3143L16.0358 18.6857C16.4071 19.6141 16.3766 20.1949 16.264 20.5269C16.1511 20.8598 15.9416 20.9924 15.8419 21.0257L16.1581 21.9744ZM13.584 17.2227C13.1905 17.8129 12.628 19.3433 13.584 20.7774L14.416 20.2227C13.7721 19.2567 14.1428 18.1872 14.416 17.7774L13.584 17.2227ZM16.9643 18.3143C16.6942 17.6393 16.3674 17.174 15.9875 16.8891C15.5944 16.5942 15.181 16.5204 14.813 16.5664C14.4607 16.6104 14.1693 16.7608 13.9775 16.8855C13.8792 16.9494 13.8002 17.011 13.7446 17.0578C13.7167 17.0813 13.6942 17.1013 13.6778 17.1165C13.6696 17.1241 13.6628 17.1306 13.6576 17.1356C13.6549 17.1381 13.6527 17.1403 13.6509 17.1421C13.6499 17.143 13.6491 17.1438 13.6484 17.1446C13.648 17.1449 13.6477 17.1453 13.6473 17.1456C13.6472 17.1457 13.647 17.146 13.6469 17.146C13.6467 17.1463 13.6465 17.1465 14 17.5C14.3536 17.8536 14.3534 17.8538 14.3532 17.854C14.3531 17.854 14.3529 17.8542 14.3528 17.8543C14.3526 17.8545 14.3524 17.8547 14.3522 17.8549C14.3518 17.8553 14.3516 17.8556 14.3514 17.8558C14.351 17.8562 14.3509 17.8562 14.3511 17.856C14.3516 17.8555 14.3534 17.8538 14.3564 17.851C14.3624 17.8455 14.3732 17.8358 14.3882 17.8231C14.4186 17.7976 14.4646 17.7616 14.5225 17.7239C14.6433 17.6454 14.7893 17.5771 14.937 17.5587C15.0691 17.5422 15.2182 17.5621 15.3875 17.6891C15.5701 17.826 15.8058 18.1108 16.0358 18.6857L16.9643 18.3143Z" fill="black"/>
<path d="M18.0923 18.1466C17.7235 18.2375 16.8691 18.0594 16.401 16.6197C15.9329 15.18 16.727 13.9475 17.1825 13.5112C17.1825 13.5112 19.0371 12.325 19.3617 15.1608C19.6214 17.4294 18.6236 18.0965 18.0923 18.1466Z" fill="black"/>
<path d="M16.401 16.6197L16.8765 16.4651L16.401 16.6197ZM18.0923 18.1466L18.0454 17.6488L18.0085 17.6522L17.9726 17.6611L18.0923 18.1466ZM19.3617 15.1608L19.8585 15.1039L19.8585 15.1039L19.3617 15.1608ZM17.1825 13.5112L16.9131 13.09C16.8858 13.1075 16.8602 13.1277 16.8367 13.1501L17.1825 13.5112ZM15.9255 16.7743C16.4503 18.3884 17.519 18.8029 18.212 18.632L17.9726 17.6611C17.9281 17.672 17.2879 17.7303 16.8765 16.4651L15.9255 16.7743ZM18.1391 18.6444C18.571 18.6037 19.0883 18.3295 19.4485 17.7493C19.809 17.1684 19.9967 16.3113 19.8585 15.1039L18.865 15.2176C18.9864 16.2788 18.8051 16.8896 18.5988 17.222C18.3921 17.555 18.1449 17.6394 18.0454 17.6488L18.1391 18.6444ZM16.8367 13.1501C16.305 13.6593 15.3753 15.0821 15.9255 16.7743L16.8765 16.4651C16.4905 15.2779 17.149 14.2357 17.5284 13.8723L16.8367 13.1501ZM19.8585 15.1039C19.7717 14.3454 19.5762 13.789 19.2817 13.4033C18.9751 13.0016 18.5867 12.8194 18.2075 12.7759C17.8471 12.7345 17.521 12.8201 17.3023 12.9018C17.1898 12.9439 17.0969 12.9883 17.0309 13.0229C16.9976 13.0403 16.9707 13.0555 16.9509 13.0671C16.941 13.0729 16.9328 13.0778 16.9265 13.0817C16.9233 13.0836 16.9206 13.0853 16.9184 13.0867C16.9173 13.0874 16.9163 13.088 16.9154 13.0886C16.915 13.0888 16.9146 13.0891 16.9142 13.0893C16.914 13.0895 16.9137 13.0896 16.9136 13.0897C16.9134 13.0899 16.9131 13.09 17.1825 13.5112C17.452 13.9324 17.4517 13.9326 17.4515 13.9327C17.4514 13.9328 17.4512 13.9329 17.4511 13.933C17.4508 13.9332 17.4506 13.9333 17.4504 13.9335C17.4499 13.9337 17.4496 13.9339 17.4494 13.9341C17.4489 13.9343 17.4489 13.9344 17.4492 13.9341C17.45 13.9337 17.4522 13.9323 17.456 13.9301C17.4635 13.9257 17.4767 13.9182 17.4949 13.9087C17.5315 13.8895 17.5861 13.8634 17.6525 13.8385C17.7917 13.7865 17.9495 13.7528 18.0934 13.7693C18.2183 13.7837 18.3545 13.8367 18.4868 14.0101C18.6314 14.1995 18.7895 14.5582 18.865 15.2176L19.8585 15.1039Z" fill="black"/>
<path d="M21.7905 18.1632C21.4132 18.1774 20.6178 17.8314 20.4542 16.3341C20.2907 14.8368 21.3135 13.796 21.8453 13.4628C21.8453 13.4628 23.8907 12.6811 23.6315 15.5099C23.4241 17.7729 22.3177 18.2217 21.7905 18.1632Z" fill="black"/>
<path d="M20.4542 16.3341L19.9572 16.3884L19.9572 16.3884L20.4542 16.3341ZM21.7905 18.1632L21.8456 17.6663L21.8087 17.6622L21.7717 17.6636L21.7905 18.1632ZM23.6315 15.5099L24.1294 15.5555L23.6315 15.5099ZM21.8453 13.4628L21.6668 12.9957C21.6365 13.0073 21.6073 13.0218 21.5798 13.0391L21.8453 13.4628ZM19.9572 16.3884C20.1406 18.0678 21.0975 18.6896 21.8092 18.6629L21.7717 17.6636C21.7289 17.6652 21.0949 17.5951 20.9513 16.2798L19.9572 16.3884ZM21.7353 18.6602C22.1651 18.7078 22.725 18.5445 23.1934 18.0515C23.6624 17.5579 24.019 16.7602 24.1294 15.5555L23.1336 15.4642C23.0366 16.5226 22.7363 17.0808 22.4684 17.3627C22.2 17.6452 21.943 17.6771 21.8456 17.6663L21.7353 18.6602ZM21.5798 13.0391C20.9587 13.4282 19.7649 14.6276 19.9572 16.3884L20.9513 16.2798C20.8165 15.046 21.6682 14.1638 22.1108 13.8865L21.5798 13.0391ZM24.1294 15.5555C24.1988 14.7988 24.1214 14.2167 23.9128 13.7808C23.6954 13.3266 23.3537 13.0701 22.9924 12.9508C22.6493 12.8374 22.314 12.8551 22.0843 12.8907C21.9661 12.909 21.8666 12.9336 21.7952 12.954C21.7593 12.9642 21.73 12.9736 21.7083 12.9809C21.6975 12.9846 21.6885 12.9878 21.6815 12.9903C21.6781 12.9915 21.6751 12.9926 21.6726 12.9935C21.6714 12.994 21.6703 12.9944 21.6693 12.9948C21.6688 12.9949 21.6684 12.9951 21.668 12.9953C21.6678 12.9954 21.6675 12.9955 21.6674 12.9955C21.6671 12.9956 21.6668 12.9957 21.8453 13.4628C22.0238 13.9298 22.0235 13.9299 22.0233 13.93C22.0232 13.9301 22.023 13.9301 22.0228 13.9302C22.0225 13.9303 22.0222 13.9304 22.022 13.9305C22.0215 13.9307 22.0212 13.9308 22.0209 13.9309C22.0204 13.9311 22.0204 13.9311 22.0208 13.931C22.0215 13.9307 22.024 13.9298 22.0281 13.9284C22.0363 13.9257 22.0506 13.921 22.0701 13.9154C22.1096 13.9042 22.1679 13.8897 22.2374 13.8789C22.3831 13.8564 22.5429 13.8554 22.6788 13.9003C22.7965 13.9392 22.9175 14.0176 23.0108 14.2125C23.1128 14.4256 23.1938 14.8066 23.1336 15.4642L24.1294 15.5555Z" fill="black"/>
<path d="M24.03 21.3795C23.6794 21.2279 23.0356 20.5836 23.2651 19.2191C23.4946 17.8546 24.6994 17.3997 25.2731 17.3428C25.2731 17.3428 27.3528 17.5559 26.3966 19.887C25.6316 21.7518 24.5001 21.659 24.03 21.3795Z" fill="black"/>
<path d="M23.2651 19.2191L23.7581 19.3021L23.7581 19.3021L23.2651 19.2191ZM24.03 21.3795L24.2855 20.9498L24.2579 20.9333L24.2284 20.9206L24.03 21.3795ZM26.3966 19.887L25.934 19.6972L26.3966 19.887ZM25.2731 17.3428L25.3241 16.8455C25.2907 16.842 25.2571 16.842 25.2238 16.8453L25.2731 17.3428ZM22.772 19.1362C22.509 20.6999 23.245 21.5849 23.8316 21.8385L24.2284 20.9206C24.1138 20.871 23.5621 20.4674 23.7581 19.3021L22.772 19.1362ZM23.7745 21.8093C24.1274 22.0191 24.6905 22.1409 25.2885 21.9016C25.8912 21.6604 26.4443 21.0881 26.8592 20.0767L25.934 19.6972C25.5839 20.5507 25.1888 20.8644 24.917 20.9732C24.6404 21.0838 24.4027 21.0194 24.2855 20.9498L23.7745 21.8093ZM25.2238 16.8453C24.537 16.9134 23.0547 17.4553 22.772 19.1362L23.7581 19.3021C23.9344 18.254 24.8618 17.8861 25.3224 17.8404L25.2238 16.8453ZM26.8592 20.0767C27.1222 19.4355 27.1983 18.8874 27.117 18.4203C27.0343 17.9445 26.7962 17.5999 26.5196 17.3618C26.2507 17.1303 25.9519 17.0041 25.7326 16.9354C25.6209 16.9004 25.5241 16.8786 25.4533 16.8652C25.4178 16.8585 25.3884 16.8539 25.3665 16.8508C25.3555 16.8492 25.3464 16.848 25.3393 16.8472C25.3357 16.8467 25.3327 16.8464 25.3301 16.8461C25.3289 16.846 25.3277 16.8458 25.3267 16.8457C25.3262 16.8457 25.3257 16.8456 25.3253 16.8456C25.3251 16.8456 25.3248 16.8455 25.3246 16.8455C25.3243 16.8455 25.3241 16.8455 25.2731 17.3428C25.2221 17.8402 25.2219 17.8402 25.2216 17.8402C25.2215 17.8402 25.2213 17.8402 25.2211 17.8401C25.2208 17.8401 25.2205 17.8401 25.2202 17.84C25.2197 17.84 25.2193 17.8399 25.2191 17.8399C25.2185 17.8399 25.2184 17.8398 25.2188 17.8399C25.2194 17.84 25.2219 17.8403 25.2259 17.8408C25.234 17.842 25.2484 17.8442 25.2679 17.8479C25.3071 17.8553 25.3653 17.8683 25.4336 17.8897C25.5744 17.9338 25.7358 18.0065 25.8672 18.1197C25.9911 18.2263 26.0936 18.372 26.1318 18.5917C26.1716 18.8203 26.1491 19.1729 25.934 19.6972L26.8592 20.0767Z" fill="black"/>
<path d="M20 18.5C18.4 18.5 17.3333 20.5 17 21.5C17.5 22 14.5 22 15 25C15.4 27.4 18.5 26.6667 20 26C21.5 26.5 24.6 27.1 25 25.5C25.4 23.9 23.5 21.8333 22.5 21C22.5 20 22 18.5 20 18.5Z" fill="black" stroke="black"/>
</svg>
