<svg width="97" height="29" viewBox="0 0 97 29" fill="none" xmlns="http://www.w3.org/2000/svg">
<g clip-path="url(#clip0_2_27)">
<path d="M27.8333 14.2857C27.8333 21.9033 21.7106 28.0714 14.1667 28.0714C6.62271 28.0714 0.5 21.9033 0.5 14.2857C0.5 6.66812 6.62271 0.5 14.1667 0.5C21.7106 0.5 27.8333 6.66812 27.8333 14.2857Z" stroke="black"/>
<path d="M10.1667 15.7857C9.83333 15.9524 8.96667 15.9857 8.16667 14.7857C7.36667 13.5857 7.83333 12.2857 8.16667 11.7857C8.16667 11.7857 9.66667 10.2857 10.6667 12.7857C11.4667 14.7857 10.6667 15.6191 10.1667 15.7857Z" fill="black"/>
<path d="M8.16667 14.7857L8.58269 14.5084L8.16667 14.7857ZM10.1667 15.7857L10.0086 15.3114L9.97484 15.3226L9.94306 15.3385L10.1667 15.7857ZM10.6667 12.7857L10.2024 12.9714L10.6667 12.7857ZM8.16667 11.7857L7.81311 11.4322C7.78983 11.4555 7.76891 11.481 7.75064 11.5084L8.16667 11.7857ZM7.75064 15.0631C8.65694 16.4225 9.78115 16.5375 10.3903 16.2329L9.94306 15.3385C9.88551 15.3673 9.27639 15.5489 8.58269 14.5084L7.75064 15.0631ZM10.3248 16.2601C10.725 16.1266 11.1656 15.7593 11.3777 15.1338C11.5901 14.5075 11.5596 13.6716 11.1309 12.6L10.2024 12.9714C10.5738 13.8998 10.5433 14.4806 10.4307 14.8126C10.3178 15.1455 10.1083 15.2781 10.0086 15.3114L10.3248 16.2601ZM7.75064 11.5084C7.35719 12.0986 6.79461 13.629 7.75064 15.0631L8.58269 14.5084C7.93872 13.5424 8.30948 12.4729 8.58269 12.0631L7.75064 11.5084ZM11.1309 12.6C10.8609 11.925 10.5341 11.4597 10.1542 11.1748C9.76102 10.8799 9.34762 10.8061 8.97965 10.8521C8.62734 10.8961 8.33593 11.0466 8.14417 11.1712C8.04583 11.2351 7.96686 11.2967 7.91127 11.3435C7.88334 11.367 7.8609 11.387 7.84445 11.4022C7.83622 11.4099 7.82945 11.4163 7.82422 11.4213C7.8216 11.4238 7.81936 11.426 7.81751 11.4278C7.81658 11.4287 7.81575 11.4296 7.81502 11.4303C7.81465 11.4306 7.81431 11.431 7.81399 11.4313C7.81383 11.4315 7.81361 11.4317 7.81354 11.4318C7.81332 11.432 7.81311 11.4322 8.16667 11.7857C8.52022 12.1393 8.52002 12.1395 8.51983 12.1397C8.51978 12.1397 8.51959 12.1399 8.51948 12.14C8.51925 12.1402 8.51905 12.1405 8.51886 12.1406C8.5185 12.141 8.51821 12.1413 8.51801 12.1415C8.51761 12.1419 8.51753 12.1419 8.51778 12.1417C8.51829 12.1412 8.52007 12.1395 8.52306 12.1367C8.52908 12.1312 8.53984 12.1215 8.55487 12.1088C8.58523 12.0833 8.63126 12.0473 8.68916 12.0096C8.80991 11.9312 8.95599 11.8628 9.10369 11.8444C9.23572 11.8279 9.38482 11.8478 9.55417 11.9748C9.73677 12.1117 9.97244 12.3965 10.2024 12.9714L11.1309 12.6Z" fill="black"/>
<path d="M12.2589 12.4322C11.8902 12.5232 11.0358 12.345 10.5677 10.9054C10.0996 9.46571 10.8937 8.23321 11.3492 7.79691C11.3492 7.79691 13.2038 6.61071 13.5284 9.44645C13.7881 11.715 12.7903 12.3822 12.2589 12.4322Z" fill="black"/>
<path d="M10.5677 10.9054L11.0432 10.7508L10.5677 10.9054ZM12.2589 12.4322L12.2121 11.9344L12.1752 11.9379L12.1392 11.9468L12.2589 12.4322ZM13.5284 9.44645L14.0251 9.38959L14.0251 9.38959L13.5284 9.44645ZM11.3492 7.79691L11.0798 7.3757C11.0524 7.39321 11.0268 7.41334 11.0034 7.43581L11.3492 7.79691ZM10.0922 11.06C10.617 12.6741 11.6856 13.0886 12.3786 12.9177L12.1392 11.9468C12.0948 11.9577 11.4545 12.016 11.0432 10.7508L10.0922 11.06ZM12.3058 12.93C12.7377 12.8894 13.255 12.6152 13.6151 12.035C13.9757 11.4541 14.1633 10.597 14.0251 9.38959L13.0316 9.50332C13.1531 10.5645 12.9717 11.1753 12.7655 11.5076C12.5588 11.8407 12.3115 11.9251 12.2121 11.9344L12.3058 12.93ZM11.0034 7.43581C10.4717 7.94501 9.54199 9.36783 10.0922 11.06L11.0432 10.7508C10.6572 9.56359 11.3156 8.52141 11.695 8.15802L11.0034 7.43581ZM14.0251 9.38959C13.9383 8.63112 13.7428 8.07471 13.4484 7.689C13.1417 7.28725 12.7534 7.10511 12.3741 7.06155C12.0138 7.02016 11.6877 7.10577 11.469 7.18754C11.3564 7.22961 11.2635 7.27398 11.1975 7.30857C11.1643 7.32597 11.1374 7.34116 11.1176 7.35275C11.1076 7.35856 11.0995 7.36348 11.0932 7.36736C11.09 7.3693 11.0873 7.37097 11.0851 7.37237C11.0839 7.37307 11.0829 7.3737 11.0821 7.37426C11.0816 7.37453 11.0812 7.37479 11.0808 7.37503C11.0806 7.37516 11.0804 7.37532 11.0803 7.37538C11.08 7.37555 11.0798 7.3757 11.3492 7.79691C11.6186 8.21813 11.6184 8.21827 11.6181 8.21842C11.6181 8.21846 11.6179 8.2186 11.6177 8.21869C11.6175 8.21886 11.6172 8.21901 11.617 8.21914C11.6166 8.21942 11.6163 8.21962 11.616 8.21976C11.6156 8.22004 11.6155 8.22006 11.6159 8.21984C11.6166 8.2194 11.6189 8.21801 11.6227 8.21582C11.6302 8.21142 11.6434 8.2039 11.6615 8.19439C11.6982 8.17519 11.7527 8.14904 11.8191 8.12422C11.9583 8.07219 12.1161 8.03849 12.26 8.05502C12.385 8.06937 12.5211 8.12238 12.6535 8.29577C12.7981 8.4852 12.9561 8.84391 13.0316 9.50332L14.0251 9.38959Z" fill="black"/>
<path d="M15.9571 12.4489C15.5798 12.4631 14.7844 12.1172 14.6209 10.6198C14.4574 9.12249 15.4801 8.08171 16.0119 7.74848C16.0119 7.74848 18.0574 6.9668 17.7981 9.79557C17.5907 12.0586 16.4844 12.5074 15.9571 12.4489Z" fill="black"/>
<path d="M14.6209 10.6198L14.1238 10.6741L14.1238 10.6741L14.6209 10.6198ZM15.9571 12.4489L16.0122 11.952L15.9754 11.9479L15.9383 11.9493L15.9571 12.4489ZM17.7981 9.79557L18.2961 9.84121L17.7981 9.79557ZM16.0119 7.74848L15.8335 7.28143C15.8031 7.29302 15.774 7.30754 15.7465 7.32478L16.0119 7.74848ZM14.1238 10.6741C14.3073 12.3535 15.2642 12.9753 15.9759 12.9486L15.9383 11.9493C15.8955 11.9509 15.2616 11.8808 15.1179 10.5655L14.1238 10.6741ZM15.902 12.9459C16.3318 12.9935 16.8916 12.8302 17.36 12.3372C17.8291 11.8436 18.1856 11.0459 18.2961 9.84121L17.3002 9.74994C17.2032 10.8083 16.9029 11.3665 16.6351 11.6484C16.3667 11.9309 16.1097 11.9628 16.0122 11.952L15.902 12.9459ZM15.7465 7.32478C15.1254 7.71393 13.9315 8.91328 14.1238 10.6741L15.1179 10.5655C14.9832 9.33171 15.8348 8.44949 16.2774 8.17218L15.7465 7.32478ZM18.2961 9.84121C18.3654 9.08448 18.288 8.50236 18.0794 8.06649C17.8621 7.61231 17.5203 7.35576 17.1591 7.23646C16.816 7.12315 16.4806 7.14086 16.2509 7.17644C16.1327 7.19475 16.0332 7.21928 15.9619 7.23969C15.926 7.24995 15.8966 7.25934 15.875 7.26665C15.8641 7.27031 15.8552 7.27346 15.8482 7.27597C15.8447 7.27722 15.8417 7.27832 15.8393 7.27923C15.8381 7.27969 15.8369 7.2801 15.836 7.28047C15.8355 7.28065 15.835 7.28082 15.8346 7.28098C15.8344 7.28106 15.8341 7.28117 15.834 7.28121C15.8337 7.28132 15.8335 7.28143 16.0119 7.74848C16.1904 8.21554 16.1902 8.21564 16.1899 8.21573C16.1899 8.21576 16.1896 8.21585 16.1895 8.21591C16.1892 8.21602 16.1889 8.21612 16.1887 8.21621C16.1882 8.21639 16.1878 8.21653 16.1876 8.21662C16.1871 8.2168 16.187 8.21682 16.1874 8.21668C16.1882 8.2164 16.1907 8.21552 16.1947 8.21414C16.2029 8.21138 16.2173 8.20674 16.2368 8.20115C16.2763 8.18986 16.3346 8.17542 16.4041 8.16465C16.5498 8.14207 16.7096 8.14115 16.8455 8.18602C16.9632 8.22489 17.0842 8.30332 17.1774 8.49817C17.2794 8.71132 17.3605 9.09228 17.3002 9.74994L18.2961 9.84121Z" fill="black"/>
<path d="M18.1967 15.6652C17.846 15.5137 17.2022 14.8694 17.4317 13.5048C17.6612 12.1403 18.866 11.6854 19.4398 11.6286C19.4398 11.6286 21.5195 11.8416 20.5632 14.1727C19.7983 16.0375 18.6668 15.9447 18.1967 15.6652Z" fill="black"/>
<path d="M17.4317 13.5048L17.9248 13.5878L17.9248 13.5878L17.4317 13.5048ZM18.1967 15.6652L18.4522 15.2355L18.4246 15.2191L18.3951 15.2063L18.1967 15.6652ZM20.5632 14.1727L20.1007 13.9829L20.5632 14.1727ZM19.4398 11.6286L19.4907 11.1312C19.4574 11.1277 19.4238 11.1277 19.3904 11.131L19.4398 11.6286ZM16.9387 13.4219C16.6757 14.9856 17.4116 15.8706 17.9982 16.1242L18.3951 15.2063C18.2805 15.1567 17.7288 14.7531 17.9248 13.5878L16.9387 13.4219ZM17.9411 16.095C18.2941 16.3049 18.8571 16.4266 19.4551 16.1873C20.0578 15.9461 20.611 15.3738 21.0258 14.3624L20.1007 13.9829C19.7506 14.8364 19.3554 15.1501 19.0836 15.2589C18.8071 15.3695 18.5694 15.3051 18.4522 15.2355L17.9411 16.095ZM19.3904 11.131C18.7037 11.1991 17.2214 11.741 16.9387 13.4219L17.9248 13.5878C18.1011 12.5397 19.0284 12.1718 19.4891 12.1261L19.3904 11.131ZM21.0258 14.3624C21.2889 13.7212 21.365 13.1731 21.2837 12.7061C21.2009 12.2302 20.9628 11.8856 20.6863 11.6475C20.4173 11.416 20.1185 11.2898 19.8992 11.2211C19.7875 11.1861 19.6907 11.1643 19.62 11.1509C19.5844 11.1442 19.5551 11.1396 19.5332 11.1365C19.5222 11.1349 19.5131 11.1337 19.506 11.1329C19.5024 11.1324 19.4993 11.1321 19.4968 11.1318C19.4955 11.1317 19.4944 11.1315 19.4934 11.1314C19.4928 11.1314 19.4924 11.1313 19.4919 11.1313C19.4917 11.1313 19.4914 11.1312 19.4913 11.1312C19.491 11.1312 19.4907 11.1312 19.4398 11.6286C19.3888 12.1259 19.3885 12.1259 19.3883 12.1259C19.3882 12.1259 19.3879 12.1259 19.3878 12.1258C19.3874 12.1258 19.3872 12.1258 19.3869 12.1258C19.3864 12.1257 19.386 12.1257 19.3857 12.1256C19.3852 12.1256 19.3851 12.1255 19.3854 12.1256C19.3861 12.1257 19.3885 12.126 19.3926 12.1266C19.4007 12.1277 19.4151 12.1299 19.4345 12.1336C19.4738 12.141 19.532 12.154 19.6003 12.1754C19.7411 12.2195 19.9024 12.2923 20.0339 12.4054C20.1577 12.512 20.2603 12.6577 20.2985 12.8775C20.3383 13.106 20.3157 13.4586 20.1007 13.9829L21.0258 14.3624Z" fill="black"/>
<path d="M14.1667 12.7857C12.5667 12.7857 11.5 14.7857 11.1667 15.7857C11.6667 16.2857 8.66667 16.2857 9.16667 19.2857C9.56667 21.6857 12.6667 20.9524 14.1667 20.2857C15.6667 20.7857 18.7667 21.3857 19.1667 19.7857C19.5667 18.1857 17.6667 16.1191 16.6667 15.2857C16.6667 14.2857 16.1667 12.7857 14.1667 12.7857Z" fill="black" stroke="black"/>
<path d="M42.5753 14.9557C42.9627 14.9557 43.3033 14.9044 43.5973 14.8017C43.896 14.6991 44.1457 14.5567 44.3463 14.3747C44.5517 14.1881 44.7057 13.9664 44.8083 13.7097C44.911 13.4531 44.9623 13.1707 44.9623 12.8627C44.9623 12.2234 44.764 11.7241 44.3673 11.3647C43.9753 11.0054 43.378 10.8257 42.5753 10.8257H40.9653V14.9557H42.5753ZM42.5753 9.75472C43.21 9.75472 43.7607 9.82939 44.2273 9.97872C44.6987 10.1234 45.0883 10.3311 45.3963 10.6017C45.7043 10.8724 45.933 11.1991 46.0823 11.5817C46.2363 11.9644 46.3133 12.3914 46.3133 12.8627C46.3133 13.3294 46.2317 13.7564 46.0683 14.1437C45.905 14.5311 45.6647 14.8647 45.3473 15.1447C45.0347 15.4247 44.645 15.6441 44.1783 15.8027C43.7163 15.9567 43.182 16.0337 42.5753 16.0337H40.9653V19.7857H39.6143V9.75472H42.5753ZM51.3528 16.5937C50.7788 16.6124 50.2888 16.6591 49.8828 16.7337C49.4815 16.8037 49.1525 16.8971 48.8958 17.0137C48.6438 17.1304 48.4595 17.2681 48.3428 17.4267C48.2308 17.5854 48.1748 17.7627 48.1748 17.9587C48.1748 18.1454 48.2051 18.3064 48.2658 18.4417C48.3265 18.5771 48.4081 18.6891 48.5108 18.7777C48.6181 18.8617 48.7418 18.9247 48.8818 18.9667C49.0265 19.0041 49.1805 19.0227 49.3438 19.0227C49.5631 19.0227 49.7638 19.0017 49.9458 18.9597C50.1278 18.9131 50.2981 18.8477 50.4568 18.7637C50.6201 18.6797 50.7741 18.5794 50.9188 18.4627C51.0681 18.3461 51.2128 18.2131 51.3528 18.0637V16.5937ZM47.3278 13.6957C47.7198 13.3177 48.1421 13.0354 48.5948 12.8487C49.0475 12.6621 49.5491 12.5687 50.0998 12.5687C50.4965 12.5687 50.8488 12.6341 51.1568 12.7647C51.4648 12.8954 51.7238 13.0774 51.9338 13.3107C52.1438 13.5441 52.3025 13.8264 52.4098 14.1577C52.5171 14.4891 52.5708 14.8531 52.5708 15.2497V19.7857H52.0178C51.8965 19.7857 51.8031 19.7671 51.7378 19.7297C51.6725 19.6877 51.6211 19.6084 51.5838 19.4917L51.4438 18.8197C51.2571 18.9924 51.0751 19.1464 50.8978 19.2817C50.7205 19.4124 50.5338 19.5244 50.3378 19.6177C50.1418 19.7064 49.9318 19.7741 49.7078 19.8207C49.4885 19.8721 49.2435 19.8977 48.9728 19.8977C48.6975 19.8977 48.4385 19.8604 48.1958 19.7857C47.9531 19.7064 47.7408 19.5897 47.5588 19.4357C47.3815 19.2817 47.2391 19.0881 47.1318 18.8547C47.0291 18.6167 46.9778 18.3367 46.9778 18.0147C46.9778 17.7347 47.0548 17.4664 47.2088 17.2097C47.3628 16.9484 47.6125 16.7174 47.9578 16.5167C48.3031 16.3161 48.7535 16.1527 49.3088 16.0267C49.8641 15.8961 50.5455 15.8214 51.3528 15.8027V15.2497C51.3528 14.6991 51.2338 14.2837 50.9958 14.0037C50.7578 13.7191 50.4101 13.5767 49.9528 13.5767C49.6448 13.5767 49.3858 13.6164 49.1758 13.6957C48.9705 13.7704 48.7908 13.8567 48.6368 13.9547C48.4875 14.0481 48.3568 14.1344 48.2448 14.2137C48.1375 14.2884 48.0301 14.3257 47.9228 14.3257C47.8388 14.3257 47.7665 14.3047 47.7058 14.2627C47.6451 14.2161 47.5938 14.1601 47.5518 14.0947L47.3278 13.6957ZM64.2068 12.6947L61.9108 19.7857H60.9238C60.8024 19.7857 60.7184 19.7064 60.6718 19.5477L59.1038 14.7387C59.0664 14.6314 59.0361 14.5241 59.0128 14.4167C58.9894 14.3047 58.9661 14.1951 58.9428 14.0877C58.9194 14.1951 58.8961 14.3047 58.8728 14.4167C58.8494 14.5241 58.8191 14.6337 58.7818 14.7457L57.1858 19.5477C57.1438 19.7064 57.0504 19.7857 56.9058 19.7857H55.9678L53.6718 12.6947H54.6518C54.7498 12.6947 54.8314 12.7204 54.8968 12.7717C54.9668 12.8231 55.0134 12.8837 55.0368 12.9537L56.3948 17.5177C56.4741 17.8537 56.5371 18.1711 56.5838 18.4697C56.6258 18.3157 56.6678 18.1594 56.7098 18.0007C56.7564 17.8421 56.8054 17.6811 56.8568 17.5177L58.3548 12.9257C58.3781 12.8557 58.4178 12.7974 58.4738 12.7507C58.5344 12.7041 58.6068 12.6807 58.6908 12.6807H59.2368C59.3301 12.6807 59.4071 12.7041 59.4678 12.7507C59.5284 12.7974 59.5704 12.8557 59.5938 12.9257L61.0568 17.5177C61.1081 17.6811 61.1548 17.8421 61.1968 18.0007C61.2388 18.1594 61.2784 18.3157 61.3158 18.4697C61.3391 18.3157 61.3671 18.1617 61.3998 18.0077C61.4371 17.8491 61.4768 17.6857 61.5188 17.5177L62.9048 12.9537C62.9281 12.8791 62.9724 12.8184 63.0378 12.7717C63.1031 12.7204 63.1801 12.6947 63.2688 12.6947H64.2068ZM70.7903 11.3227C70.7483 11.3927 70.7016 11.4464 70.6503 11.4837C70.6036 11.5164 70.5453 11.5327 70.4753 11.5327C70.3959 11.5327 70.3026 11.4931 70.1953 11.4137C70.0879 11.3344 69.9526 11.2481 69.7893 11.1547C69.6306 11.0567 69.4369 10.9681 69.2083 10.8887C68.9843 10.8094 68.7113 10.7697 68.3893 10.7697C68.0859 10.7697 67.8176 10.8117 67.5843 10.8957C67.3556 10.9751 67.1619 11.0847 67.0033 11.2247C66.8493 11.3647 66.7326 11.5304 66.6533 11.7217C66.5739 11.9084 66.5343 12.1114 66.5343 12.3307C66.5343 12.6107 66.6019 12.8441 66.7373 13.0307C66.8773 13.2127 67.0593 13.3691 67.2833 13.4997C67.5119 13.6304 67.7686 13.7447 68.0533 13.8427C68.3426 13.9361 68.6366 14.0341 68.9353 14.1367C69.2386 14.2394 69.5326 14.3561 69.8173 14.4867C70.1066 14.6127 70.3633 14.7737 70.5873 14.9697C70.8159 15.1657 70.9979 15.4061 71.1333 15.6907C71.2733 15.9754 71.3433 16.3254 71.3433 16.7407C71.3433 17.1794 71.2686 17.5924 71.1193 17.9797C70.9699 18.3624 70.7506 18.6961 70.4613 18.9807C70.1766 19.2654 69.8243 19.4894 69.4043 19.6527C68.9889 19.8161 68.5153 19.8977 67.9833 19.8977C67.3299 19.8977 66.7373 19.7811 66.2053 19.5477C65.6733 19.3097 65.2183 18.9901 64.8403 18.5887L65.2323 17.9447C65.2696 17.8934 65.3139 17.8514 65.3653 17.8187C65.4213 17.7814 65.4819 17.7627 65.5473 17.7627C65.6079 17.7627 65.6756 17.7884 65.7503 17.8397C65.8296 17.8864 65.9183 17.9471 66.0163 18.0217C66.1143 18.0964 66.2263 18.1781 66.3523 18.2667C66.4783 18.3554 66.6206 18.4371 66.7793 18.5117C66.9426 18.5864 67.1269 18.6494 67.3323 18.7007C67.5376 18.7474 67.7686 18.7707 68.0253 18.7707C68.3473 18.7707 68.6343 18.7264 68.8863 18.6377C69.1383 18.5491 69.3506 18.4254 69.5233 18.2667C69.7006 18.1034 69.8359 17.9097 69.9293 17.6857C70.0226 17.4617 70.0693 17.2121 70.0693 16.9367C70.0693 16.6334 69.9993 16.3861 69.8593 16.1947C69.7239 15.9987 69.5443 15.8354 69.3203 15.7047C69.0963 15.5741 68.8396 15.4644 68.5503 15.3757C68.2609 15.2824 67.9669 15.1891 67.6683 15.0957C67.3696 14.9977 67.0756 14.8857 66.7863 14.7597C66.4969 14.6337 66.2403 14.4704 66.0163 14.2697C65.7923 14.0691 65.6103 13.8194 65.4703 13.5207C65.3349 13.2174 65.2673 12.8441 65.2673 12.4007C65.2673 12.0461 65.3349 11.7031 65.4703 11.3717C65.6103 11.0404 65.8109 10.7464 66.0723 10.4897C66.3383 10.2331 66.6626 10.0277 67.0453 9.87372C67.4326 9.71972 67.8759 9.64272 68.3753 9.64272C68.9353 9.64272 69.4439 9.73139 69.9013 9.90872C70.3633 10.0861 70.7693 10.3427 71.1193 10.6787L70.7903 11.3227ZM74.0968 13.6397C74.4001 13.3177 74.7361 13.0611 75.1048 12.8697C75.4734 12.6784 75.8981 12.5827 76.3788 12.5827C76.7661 12.5827 77.1068 12.6481 77.4008 12.7787C77.6994 12.9047 77.9468 13.0867 78.1428 13.3247C78.3434 13.5581 78.4951 13.8404 78.5978 14.1717C78.7004 14.5031 78.7518 14.8694 78.7518 15.2707V19.7857H77.4988V15.2707C77.4988 14.7341 77.3751 14.3187 77.1278 14.0247C76.8851 13.7261 76.5141 13.5767 76.0148 13.5767C75.6461 13.5767 75.3008 13.6654 74.9788 13.8427C74.6614 14.0201 74.3674 14.2604 74.0968 14.5637V19.7857H72.8438V9.47472H74.0968V13.6397ZM83.6394 12.5827C84.1574 12.5827 84.6241 12.6691 85.0394 12.8417C85.4548 13.0144 85.8094 13.2594 86.1034 13.5767C86.3974 13.8941 86.6214 14.2791 86.7754 14.7317C86.9341 15.1797 87.0134 15.6814 87.0134 16.2367C87.0134 16.7967 86.9341 17.3007 86.7754 17.7487C86.6214 18.1967 86.3974 18.5794 86.1034 18.8967C85.8094 19.2141 85.4548 19.4591 85.0394 19.6317C84.6241 19.7997 84.1574 19.8837 83.6394 19.8837C83.1168 19.8837 82.6454 19.7997 82.2254 19.6317C81.8101 19.4591 81.4554 19.2141 81.1614 18.8967C80.8674 18.5794 80.6411 18.1967 80.4824 17.7487C80.3284 17.3007 80.2514 16.7967 80.2514 16.2367C80.2514 15.6814 80.3284 15.1797 80.4824 14.7317C80.6411 14.2791 80.8674 13.8941 81.1614 13.5767C81.4554 13.2594 81.8101 13.0144 82.2254 12.8417C82.6454 12.6691 83.1168 12.5827 83.6394 12.5827ZM83.6394 18.9107C84.3394 18.9107 84.8621 18.6774 85.2074 18.2107C85.5528 17.7394 85.7254 17.0837 85.7254 16.2437C85.7254 15.3991 85.5528 14.7411 85.2074 14.2697C84.8621 13.7984 84.3394 13.5627 83.6394 13.5627C83.2848 13.5627 82.9744 13.6234 82.7084 13.7447C82.4471 13.8661 82.2278 14.0411 82.0504 14.2697C81.8778 14.4984 81.7471 14.7807 81.6584 15.1167C81.5744 15.4481 81.5324 15.8237 81.5324 16.2437C81.5324 17.0837 81.7051 17.7394 82.0504 18.2107C82.4004 18.6774 82.9301 18.9107 83.6394 18.9107ZM89.8468 18.0777C90.0754 18.3857 90.3251 18.6027 90.5958 18.7287C90.8664 18.8547 91.1698 18.9177 91.5058 18.9177C92.1684 18.9177 92.6771 18.6821 93.0318 18.2107C93.3864 17.7394 93.5638 17.0674 93.5638 16.1947C93.5638 15.7327 93.5218 15.3361 93.4378 15.0047C93.3584 14.6734 93.2418 14.4027 93.0878 14.1927C92.9338 13.9781 92.7448 13.8217 92.5208 13.7237C92.2968 13.6257 92.0424 13.5767 91.7578 13.5767C91.3518 13.5767 90.9948 13.6701 90.6868 13.8567C90.3834 14.0434 90.1034 14.3071 89.8468 14.6477V18.0777ZM89.7838 13.7937C90.0824 13.4251 90.4278 13.1287 90.8198 12.9047C91.2118 12.6807 91.6598 12.5687 92.1638 12.5687C92.5744 12.5687 92.9454 12.6481 93.2768 12.8067C93.6081 12.9607 93.8904 13.1917 94.1238 13.4997C94.3571 13.8031 94.5368 14.1811 94.6628 14.6337C94.7888 15.0864 94.8518 15.6067 94.8518 16.1947C94.8518 16.7174 94.7818 17.2051 94.6418 17.6577C94.5018 18.1057 94.2988 18.4954 94.0328 18.8267C93.7714 19.1534 93.4494 19.4124 93.0668 19.6037C92.6888 19.7904 92.2618 19.8837 91.7858 19.8837C91.3518 19.8837 90.9784 19.8114 90.6658 19.6667C90.3578 19.5174 90.0848 19.3121 89.8468 19.0507V22.1867H88.5938V12.6947H89.3428C89.5201 12.6947 89.6298 12.7811 89.6718 12.9537L89.7838 13.7937Z" fill="black"/>
</g>
<defs>
<clipPath id="clip0_2_27">
<rect width="96.3333" height="28.5714" fill="white"/>
</clipPath>
</defs>
</svg>
